<svg width="130" height="130" viewBox="0 0 130 130" fill="none" xmlns="http://www.w3.org/2000/svg">
<rect x="46" y="69" width="15" height="15" fill="#FCDC94"/>
<rect x="46" y="92" width="15" height="15" fill="#FCDC94"/>
<rect x="23" y="92" width="15" height="15" fill="#FCDC94"/>
<rect x="46" y="115" width="15" height="15" fill="#FCDC94"/>
<rect y="115" width="15" height="15" fill="#FCDC94"/>
<rect x="69" y="69" width="15" height="15" fill="#FCDC94"/>
<rect x="69" y="92" width="15" height="15" fill="#FCDC94"/>
<rect x="69" y="115" width="15" height="15" fill="#FCDC94"/>
<rect x="23" y="115" width="15" height="15" fill="#FCDC94"/>
<rect x="92" y="69" width="15" height="15" fill="#FCDC94"/>
<rect x="92" y="92" width="15" height="15" fill="#FCDC94"/>
<rect x="92" y="46" width="15" height="15" fill="#FCDC94"/>
<rect x="92" y="23" width="15" height="15" fill="#FCDC94"/>
<rect x="69" y="46" width="15" height="15" fill="#FCDC94"/>
<rect x="92" y="115" width="15" height="15" fill="#FCDC94"/>
<rect x="115" y="69" width="15" height="15" fill="#FCDC94"/>
<rect x="115" y="23" width="15" height="15" fill="#FCDC94"/>
<rect x="115" width="15" height="15" fill="#FCDC94"/>
<rect x="115" y="92" width="15" height="15" fill="#FCDC94"/>
<rect x="115" y="46" width="15" height="15" fill="#FCDC94"/>
<rect x="115" y="115" width="15" height="15" fill="#FCDC94"/>
</svg>
